<svg width="16" height="16" viewBox="0 0 16 16" fill="none" xmlns="http://www.w3.org/2000/svg">
<path fill-rule="evenodd" clip-rule="evenodd" d="M13 3H3C1.89543 3 1 3.89543 1 5V11C1 12.1046 1.89543 13 3 13H13C14.1046 13 15 12.1046 15 11V5C15 3.89543 14.1046 3 13 3ZM3 2C1.34315 2 0 3.34315 0 5V11C0 12.6569 1.34315 14 3 14H13C14.6569 14 16 12.6569 16 11V5C16 3.34315 14.6569 2 13 2H3Z" fill="white"/>
<path d="M10.25 7.56699C10.5833 7.75944 10.5833 8.24056 10.25 8.43301L7.25 10.1651C6.91667 10.3575 6.5 10.117 6.5 9.73205V6.26795C6.5 5.88305 6.91667 5.64249 7.25 5.83494L10.25 7.56699Z" fill="white"/>
</svg>
